<?xml version="1.0" encoding="UTF-8" standalone="no"?>
<!-- Created with Inkscape (http://www.inkscape.org/) -->

<svg
   width="38.186966mm"
   height="9.3806839mm"
   viewBox="0 0 38.186966 9.3806839"
   version="1.1"
   id="svg5"
   xml:space="preserve"
   inkscape:version="1.2 (dc2aedaf03, 2022-05-15)"
   sodipodi:docname="logo_principal.svg"
   xmlns:inkscape="http://www.inkscape.org/namespaces/inkscape"
   xmlns:sodipodi="http://sodipodi.sourceforge.net/DTD/sodipodi-0.dtd"
   xmlns="http://www.w3.org/2000/svg"
   xmlns:svg="http://www.w3.org/2000/svg"><sodipodi:namedview
     id="namedview7"
     pagecolor="#ffffff"
     bordercolor="#000000"
     borderopacity="0.25"
     inkscape:showpageshadow="true"
     inkscape:pageopacity="0.0"
     inkscape:pagecheckerboard="true"
     inkscape:deskcolor="#989dae"
     inkscape:document-units="mm"
     showgrid="false"
     inkscape:zoom="5.543368"
     inkscape:cx="99.758847"
     inkscape:cy="13.710077"
     inkscape:window-width="1366"
     inkscape:window-height="705"
     inkscape:window-x="1912"
     inkscape:window-y="183"
     inkscape:window-maximized="1"
     inkscape:current-layer="g1581"
     showguides="false"
     borderlayer="true"
     showborder="true" /><defs
     id="defs2"><style
       id="style132">.cls-1{fill:#fff;}.cls-2{fill:#1a1818;}.cls-3{isolation:isolate;}</style><clipPath
       clipPathUnits="userSpaceOnUse"
       id="clipPath402"><rect
         style="fill:#4d4d4d;stroke-width:1.40814"
         id="rect404"
         width="106.26821"
         height="48.442074"
         x="-8.5316591"
         y="117.95239" /></clipPath><clipPath
       clipPathUnits="userSpaceOnUse"
       id="clipPath408"><rect
         style="fill:#4d4d4d;stroke-width:1.40814"
         id="rect410"
         width="91.050804"
         height="50.471062"
         x="101.03365"
         y="118.71321" /></clipPath></defs><g
     inkscape:label="Capa 1"
     inkscape:groupmode="layer"
     id="layer1"
     transform="translate(-49.383446,-202.18268)"><g
       id="g1581"><g
         id="g663"
         transform="matrix(0.18819124,0,0,0.18819124,51.275409,180.41879)"
         clip-path="url(#clipPath408)"
         style="fill:#ffffff;fill-opacity:1"><path
           style="fill:#ffffff;stroke-width:0.0846667;fill-opacity:1"
           d="m 122.62368,164.96376 c -0.0927,-0.34582 -0.0602,-9.54446 0.0343,-9.72107 0.0656,-0.12261 0.17838,-0.16377 0.44873,-0.16377 0.43606,0 0.56429,0.11138 0.56429,0.49013 v 0.28693 l 0.27516,-0.23228 c 0.45369,-0.38296 1.20478,-0.69271 1.82454,-0.75245 1.53833,-0.14827 2.82937,0.5924 3.54044,2.03116 0.29325,0.59336 0.31923,0.70718 0.35294,1.54634 0.0309,0.7704 0.009,0.98812 -0.1486,1.45617 -0.353,1.05014 -1.03421,1.85016 -1.93499,2.27242 -0.42901,0.20112 -0.58028,0.22525 -1.41183,0.22525 -1.0741,0 -1.36902,-0.11046 -2.08635,-0.78144 l -0.41131,-0.38473 v 1.82499 c 0,1.00375 -0.0231,1.88526 -0.0514,1.95892 -0.0379,0.0987 -0.16886,0.13393 -0.49812,0.13393 -0.39171,0 -0.45302,-0.0235 -0.49779,-0.1905 z m 4.50469,-3.79523 c 0.58036,-0.29001 1.00566,-0.74718 1.29993,-1.39735 0.28696,-0.63404 0.2672,-1.60068 -0.0468,-2.2892 -0.93445,-2.04896 -3.4472,-2.11009 -4.44755,-0.10821 -0.33429,0.66898 -0.4022,1.25523 -0.22549,1.9469 0.43527,1.70378 2.00785,2.55348 3.41993,1.84786 z m 6.25777,1.26914 c -0.9267,-0.21841 -1.87949,-1.01119 -2.33165,-1.94008 -1.25303,-2.57415 0.49009,-5.588 3.23192,-5.588 1.48056,0 2.70272,0.76263 3.32426,2.07433 1.24216,2.62148 -0.51976,5.57628 -3.30177,5.53716 -0.3327,-0.005 -0.74794,-0.0422 -0.92276,-0.0834 z m 2.09329,-1.21546 c 1.63491,-0.79988 2.00977,-3.12808 0.71729,-4.45502 -0.57309,-0.58836 -1.05727,-0.79576 -1.85773,-0.79576 -0.80047,0 -1.28465,0.2074 -1.85773,0.79576 -0.5294,0.54351 -0.76694,1.14892 -0.76694,1.95467 0,2.06506 1.9746,3.37637 3.76511,2.50035 z m 16.29491,1.19697 c -1.24134,-0.3519 -2.25873,-1.4875 -2.5393,-2.83434 -0.13349,-0.64077 -0.0523,-1.72105 0.17504,-2.32862 0.85277,-2.27922 3.76577,-3.10163 5.48488,-1.54851 l 0.34266,0.30957 0.0713,-0.44801 0.0713,-0.44801 h 0.42253 0.42254 v 3.59833 3.59833 l -0.41514,0.0263 c -0.48659,0.0309 -0.55538,-0.039 -0.55723,-0.56629 l -10e-4,-0.37061 -0.38357,0.35356 c -0.56029,0.51645 -1.03869,0.69745 -1.94476,0.73575 -0.46686,0.0197 -0.9119,-0.0103 -1.14899,-0.0775 z m 1.81672,-1.07861 c 0.58255,-0.21796 1.10294,-0.71745 1.39378,-1.33783 0.19364,-0.41302 0.22443,-0.58935 0.22413,-1.28315 0,-0.70868 -0.0285,-0.86175 -0.23708,-1.28713 -0.48292,-0.98495 -1.49283,-1.59126 -2.45974,-1.47675 -0.92173,0.10917 -1.65212,0.66315 -2.0761,1.57468 -0.2981,0.64088 -0.30995,1.7019 -0.026,2.32754 0.62203,1.37053 1.89494,1.96382 3.18101,1.48264 z m 6.65593,1.03577 c -1.31297,-0.43739 -2.22226,-1.56008 -2.46453,-3.04292 -0.27151,-1.66184 0.59268,-3.40612 2.03495,-4.10738 0.51137,-0.24863 0.62535,-0.27075 1.40325,-0.27236 1.01615,-0.002 1.5014,0.17647 2.07915,0.76516 0.20301,0.20685 0.39866,0.37608 0.43478,0.37608 0.0361,0 0.0758,-1.03822 0.0882,-2.30716 l 0.0225,-2.30717 h 0.46567 0.46567 v 5.41867 5.41866 h -0.46567 -0.46567 l -0.0256,-0.3975 -0.0256,-0.3975 -0.44005,0.33318 c -0.58045,0.43947 -1.04984,0.59563 -1.92172,0.63931 -0.54699,0.0274 -0.8314,-0.001 -1.18533,-0.11907 z m 2.08819,-1.16215 c 0.83676,-0.4094 1.3844,-1.27129 1.44919,-2.28078 0.0736,-1.14734 -0.42996,-2.13602 -1.35794,-2.66601 -0.78615,-0.44899 -1.49871,-0.44138 -2.27541,0.0243 -1.12092,0.67205 -1.63327,2.15471 -1.17128,3.38948 0.57976,1.54957 1.9976,2.19734 3.35544,1.53302 z m 6.54182,1.20493 c -2.06057,-0.58381 -3.21804,-3.06051 -2.40162,-5.13886 0.69748,-1.77554 2.52403,-2.72011 4.35285,-2.25102 3.32316,0.85238 3.7606,5.6305 0.65542,7.15901 -0.50933,0.25071 -0.66746,0.28598 -1.397,0.31161 -0.50585,0.0178 -0.97169,-0.0133 -1.20965,-0.0807 z m 2.15787,-1.19467 c 2.02666,-0.99155 2.01361,-4.02171 -0.0216,-5.02117 -0.65632,-0.32231 -1.54903,-0.33388 -2.17037,-0.0281 -0.92063,0.45303 -1.47928,1.30042 -1.54953,2.35039 -0.14301,2.13758 1.89058,3.60449 3.74153,2.69891 z m 11.47347,1.19473 c -1.24145,-0.35193 -2.25927,-1.48813 -2.53905,-2.83434 -0.13441,-0.64672 -0.0576,-1.72413 0.16425,-2.30265 0.5962,-1.55502 1.97631,-2.45934 3.585,-2.34908 0.79413,0.0544 1.58969,0.39616 1.9938,0.85641 l 0.24917,0.28379 0.0756,-0.47602 0.0756,-0.47603 h 0.42333 0.42333 v 3.59833 3.59833 l -0.41514,0.0263 c -0.48767,0.0309 -0.55539,-0.0387 -0.55723,-0.57269 l -0.001,-0.37701 -0.3175,0.3078 c -0.55226,0.5354 -1.12636,0.76355 -2.00598,0.7972 -0.46294,0.0177 -0.92022,-0.0142 -1.15384,-0.0804 z m 1.81672,-1.07861 c 0.58255,-0.21796 1.10294,-0.71745 1.39378,-1.33783 0.19364,-0.41302 0.22443,-0.58935 0.22413,-1.28315 0,-0.70868 -0.0285,-0.86175 -0.23708,-1.28713 -0.48292,-0.98495 -1.49282,-1.59126 -2.45974,-1.47675 -0.92173,0.10917 -1.65212,0.66315 -2.0761,1.57468 -0.2981,0.64088 -0.30994,1.7019 -0.026,2.32754 0.62203,1.37053 1.89494,1.96382 3.18101,1.48264 z m -37.65393,0.98085 c -0.4068,-0.14504 -0.71456,-0.42419 -0.89064,-0.80783 -0.11323,-0.24672 -0.14083,-0.7316 -0.16485,-2.89625 l -0.0289,-2.59993 -0.6074,-0.0247 c -0.5992,-0.0244 -0.60778,-0.028 -0.63518,-0.26781 -0.0153,-0.13369 -0.005,-0.33371 0.0228,-0.4445 0.0472,-0.18807 0.0898,-0.20144 0.64161,-0.20144 h 0.59105 v -1.09462 c 0,-1.2668 0.0436,-1.36071 0.63199,-1.36071 0.25555,0 0.3814,0.0404 0.41729,0.13392 0.0283,0.0737 0.0514,0.62611 0.0514,1.22767 v 1.09374 h 0.71805 c 0.68559,0 0.72034,0.009 0.76861,0.20144 0.0278,0.11079 0.0381,0.31081 0.0228,0.4445 l -0.0278,0.24306 -0.74084,0.0245 -0.74083,0.0245 v 2.36186 c 0,1.29902 0.0363,2.45727 0.0806,2.57389 0.10503,0.27623 0.37054,0.41689 0.89306,0.47311 l 0.42333,0.0456 0.0263,0.36609 c 0.0145,0.20135 -0.0187,0.42042 -0.0739,0.48683 -0.12953,0.15607 -0.93775,0.15446 -1.37867,-0.003 z m -39.4077,-0.0619 c -0.078,-0.078 -0.10213,-1.35711 -0.10115,-5.35602 8.5e-4,-2.88946 0.0318,-5.30159 0.0691,-5.36028 0.0532,-0.0838 0.88479,-0.10198 3.8722,-0.0847 l 3.80446,0.022 0.0263,0.36609 c 0.0458,0.63681 0.21054,0.60758 -3.42337,0.60758 h -3.24931 v 1.82033 1.82033 h 2.60774 c 1.91534,0 2.6347,0.027 2.70933,0.1016 0.0559,0.0559 0.1016,0.26409 0.1016,0.46269 0,0.27034 -0.0412,0.38311 -0.16377,0.44873 -0.10247,0.0549 -1.11652,0.0876 -2.70934,0.0876 h -2.54556 v 2.07336 2.07336 l 3.3655,0.0221 3.3655,0.0221 v 0.46567 0.46566 l -3.81338,0.022 c -2.89544,0.0167 -3.83805,-0.003 -3.91584,-0.0804 z m 8.31188,-0.0218 c -0.0756,-0.19702 -0.0385,-0.2623 1.16076,-2.04157 0.63999,-0.94955 1.09071,-1.69885 1.0639,-1.7687 -0.0256,-0.0667 -0.46483,-0.74703 -0.97611,-1.51192 -0.51128,-0.76489 -0.93696,-1.44341 -0.94594,-1.50782 -0.0402,-0.2886 0.0101,-0.32878 0.41231,-0.32878 0.49207,0 0.49327,10e-4 1.45282,1.41817 0.38629,0.57044 0.72558,1.03558 0.75397,1.03364 0.0284,-0.002 0.42469,-0.5544 0.88065,-1.22767 l 0.82904,-1.22414 h 0.46479 c 0.32896,0 0.47864,0.0361 0.51214,0.12337 0.0278,0.0725 -0.38088,0.7606 -0.99044,1.66768 -0.57077,0.84938 -1.03777,1.58459 -1.03777,1.6338 0,0.0492 0.52551,0.878 1.1678,1.84174 0.73804,1.10741 1.14927,1.80055 1.11743,1.8835 -0.0359,0.0936 -0.16825,0.13125 -0.46159,0.13125 -0.50775,0 -0.49548,0.0127 -1.62205,-1.68055 l -0.86461,-1.29954 -0.98788,1.46888 -0.98788,1.46887 -0.44545,0.0256 c -0.34113,0.0196 -0.45726,-0.005 -0.49589,-0.10584 z m 24.10066,-0.0412 c -0.1384,-0.25859 -0.11851,-6.789 0.0213,-6.98014 0.0816,-0.1116 0.20185,-0.14218 0.47975,-0.12201 0.33623,0.0244 0.37974,0.0534 0.46602,0.31097 0.0864,0.25804 0.106,0.27101 0.21342,0.14157 0.065,-0.0784 0.30037,-0.23478 0.52293,-0.34756 0.60263,-0.30537 1.5605,-0.29325 2.19429,0.0278 0.51775,0.26225 0.62309,0.51968 0.37043,0.90528 -0.17315,0.26426 -0.43191,0.27807 -0.88442,0.0472 -0.38674,-0.1973 -0.82338,-0.21671 -1.21298,-0.0539 -0.36689,0.15329 -0.93404,0.80877 -1.05811,1.2229 -0.0654,0.21836 -0.0996,1.09988 -0.0996,2.57041 0,1.62784 -0.0277,2.26578 -0.1016,2.33968 -0.0559,0.0559 -0.2641,0.1016 -0.46269,0.1016 -0.27035,0 -0.38312,-0.0412 -0.44873,-0.16377 z m 35.59574,0.0579 c -0.0224,-0.0582 -0.0307,-1.68701 -0.0185,-3.6195 l 0.0221,-3.51361 h 0.42334 c 0.40466,0 0.42733,0.0124 0.5141,0.28082 0.0834,0.25816 0.10053,0.26903 0.21167,0.13469 0.25947,-0.31364 0.93407,-0.54082 1.60855,-0.54169 0.53239,-6.7e-4 0.71886,0.0386 1.10066,0.23201 0.51776,0.26225 0.62309,0.51968 0.37043,0.90528 -0.17151,0.26176 -0.3951,0.27397 -0.86442,0.0472 -0.81862,-0.39552 -1.65691,-0.0513 -2.16524,0.889 -0.17316,0.3203 -0.18451,0.4671 -0.20928,2.70671 -0.0167,1.50954 -0.0588,2.40737 -0.1162,2.4765 -0.11705,0.14104 -0.82329,0.1431 -0.87722,0.003 z M -4.4296918,141.65925 v -20.61633 l 9.122834,1.7e-4 c 9.3653688,1.7e-4 10.6762348,0.0365 12.2344118,0.33854 7.372301,1.42911 12.087466,7.60184 11.495215,15.04864 -0.27278,3.42985 -1.489086,6.30018 -3.64742,8.60744 -0.899133,0.96118 -2.431994,2.11587 -3.551039,2.67497 -0.20955,0.10469 -0.392661,0.20051 -0.406912,0.21291 -0.07351,0.064 0.289156,1.17042 0.540831,1.64996 0.854915,1.62896 2.213237,2.65166 4.237269,3.19028 0.785462,0.20902 0.979896,0.22471 3.227645,0.26042 l 2.391834,0.038 V 137.0536 121.04292 l 8.9535,1.7e-4 c 5.24714,8e-5 9.418915,0.0357 10.077808,0.086 7.122521,0.54334 12.278271,5.10182 13.404701,11.85182 0.12008,0.7196 0.15206,2.94923 0.0519,3.6195 l -0.0664,0.4445 h 1.52692 1.52692 v -8.001 -8.001 H 81.21066 95.730985 v 4.14867 4.14866 h -9.73666 -9.736665 v 3.85234 3.85233 h 5.71239 5.712395 l 0.0238,-1.02783 0.0238,-1.02782 3.34434,3.30207 3.34433,3.30208 -1.87809,1.93791 c -1.03295,1.06586 -2.54743,2.60427 -3.3655,3.41868 l -1.48741,1.4808 v -1.07859 -1.0786 H 81.97187 76.25601 l 0.022,3.87351 0.022,3.8735 9.842495,0.0215 9.8425,0.0215 v 4.10598 4.10598 H 81.33768 66.690346 v -8.00934 -8.00934 l -2.18017,0.0375 c -1.89486,0.0326 -2.2688,0.0615 -2.8575,0.22086 -0.7195,0.19476 -1.85816,0.7111 -2.29581,1.04106 -0.1451,0.1094 -0.62135,0.47224 -1.05834,0.80632 -1.16655,0.89184 -3.13551,2.10418 -3.889868,2.39509 -0.933737,0.36008 -1.994416,0.6562 -3.124841,0.87239 -0.934185,0.17866 -1.182734,0.1868 -5.73895,0.18793 l -4.762475,0.001 -2.6e-5,5.22816 -2.5e-5,5.22817 -6.286501,-0.002 c -7.915137,-0.002 -9.460832,-0.0819 -11.705167,-0.60507 -1.74988,-0.40787 -3.810682,-1.29446 -5.292322,-2.27682 -1.099999,-0.72932 -2.74154,-2.38046 -3.494929,-3.51535 -0.971275,-1.46311 -1.779221,-3.36815 -2.270581,-5.35376 l -0.276342,-1.11671 H 8.2970852 5.1376722 v 6.43466 6.43467 H 0.35400521 -4.4296618 Z m 54.3560028,-0.4084 c 1.704462,-0.50315 3.165086,-1.78433 3.817167,-3.34823 0.401768,-0.96356 0.523441,-1.67773 0.477891,-2.80503 -0.04458,-1.10337 -0.272813,-1.9241 -0.800502,-2.87867 -0.427826,-0.77392 -1.5876,-1.90984 -2.351556,-2.30319 -1.218024,-0.62715 -1.034443,-0.60725 -5.9055,-0.64021 l -4.3815,-0.0297 v 6.1081 6.1081 l 4.339167,-0.0369 c 3.680422,-0.0313 4.409862,-0.0577 4.804833,-0.17434 z m -34.967335,-0.29582 c 1.731551,-0.6174 3.046973,-1.96877 3.618345,-3.71723 0.162505,-0.49729 0.225175,-0.90032 0.25593,-1.64588 0.05197,-1.25987 -0.105148,-2.02777 -0.638173,-3.119 -0.326285,-0.66798 -0.515469,-0.92718 -1.115995,-1.52902 -0.507196,-0.5083 -0.90007,-0.81555 -1.315774,-1.02901 -1.224783,-0.6289 -1.014798,-0.6068 -6.0748328,-0.6394 l -4.550834,-0.0293 v 5.97711 5.97711 l 4.6355,-0.0246 c 4.6019808,-0.0244 4.6394798,-0.026 5.1858338,-0.22079 z m 108.460064,5.6119 c -2.21359,-0.62223 -3.32734,-3.23098 -2.30588,-5.4011 0.36583,-0.77719 0.92609,-1.34911 1.69253,-1.72773 0.63385,-0.31313 0.66301,-0.31885 1.6251,-0.31885 0.93217,0 1.00627,0.0132 1.5281,0.27157 1.00576,0.49803 1.58745,1.16438 1.94729,2.23067 0.15419,0.4569 0.17923,0.69151 0.15383,1.44083 -0.0281,0.82989 -0.053,0.94086 -0.34129,1.524 -0.39167,0.79224 -0.95291,1.3588 -1.72339,1.73972 -0.51255,0.25341 -0.70349,0.30035 -1.35466,0.33309 -0.52797,0.0265 -0.89872,-0.001 -1.22163,-0.0922 z m 1.6947,-1.02187 c 1.20206,-0.35697 1.94391,-1.38746 1.94391,-2.70026 0,-2.03132 -2.09605,-3.38023 -3.80619,-2.44945 -1.601,0.87138 -1.95708,3.13389 -0.69586,4.42154 0.74963,0.76534 1.60914,1.00999 2.55814,0.72817 z m 6.79674,1.06864 c -1.30179,-0.27696 -2.43218,-1.46401 -2.72646,-2.86311 -0.3777,-1.79574 0.44288,-3.61 1.97997,-4.37764 0.47187,-0.23565 0.57423,-0.2537 1.43933,-0.2537 1.0829,0 1.40922,0.12283 2.0955,0.78874 l 0.40217,0.39023 v -2.2556 c 0,-2.5051 0.004,-2.5217 0.55033,-2.5217 0.58053,0 0.55033,-0.30361 0.55033,5.53478 0,3.98498 -0.0247,5.29344 -0.1016,5.37029 -0.14583,0.14583 -0.7092,0.12537 -0.86602,-0.0315 -0.0732,-0.0732 -0.13304,-0.26665 -0.13304,-0.42993 v -0.29689 l -0.35312,0.30226 c -0.19421,0.16624 -0.55968,0.37954 -0.81217,0.474 -0.52773,0.19745 -1.50852,0.27964 -2.02522,0.16972 z m 1.68461,-1.20492 c 0.48184,-0.20453 1.10452,-0.84696 1.35623,-1.39927 0.28011,-0.61463 0.26708,-1.68218 -0.0282,-2.31179 -0.29127,-0.62098 -0.6438,-1.00927 -1.1921,-1.31299 -0.38774,-0.21478 -0.53859,-0.24918 -1.08534,-0.2475 -0.74941,0.002 -1.12219,0.16633 -1.66331,0.73187 -1.489,1.55621 -0.85406,4.14778 1.15113,4.69839 0.45396,0.12465 0.91094,0.075 1.46162,-0.15871 z m 6.4589,1.1745 c -0.94111,-0.31251 -1.56679,-0.83789 -1.96601,-1.65084 l -0.23533,-0.47919 v -2.58233 -2.58233 h 0.46567 0.46567 l 0.0423,2.413 c 0.0401,2.28596 0.0522,2.43146 0.22991,2.76373 0.8372,1.56538 3.08464,1.48368 3.82575,-0.13907 0.10997,-0.24077 0.14327,-0.7408 0.17767,-2.667 l 0.0423,-2.37066 h 0.46566 0.46567 l 0.0221,3.50385 c 0.0159,2.51622 -0.005,3.53644 -0.0739,3.6195 -0.13046,0.15719 -0.62519,0.14628 -0.78887,-0.0174 -0.0732,-0.0732 -0.13305,-0.26811 -0.13305,-0.43319 v -0.30014 l -0.34947,0.31573 c -0.19221,0.17365 -0.52558,0.39381 -0.74083,0.48925 -0.48472,0.21492 -1.44411,0.27356 -1.91536,0.11708 z m 8.84766,0.0204 c -1.57154,-0.27138 -2.9087,-1.6292 -3.12802,-3.17637 -0.3467,-2.44575 1.52382,-4.47483 3.99338,-4.33187 0.55781,0.0323 0.76425,0.0911 1.35678,0.38663 0.74116,0.36964 1.16453,0.70306 1.16453,0.91711 0,0.0716 -0.11132,0.24141 -0.24737,0.37746 -0.28214,0.28214 -0.35942,0.27056 -0.93796,-0.14063 -0.73197,-0.52024 -1.51832,-0.66142 -2.33414,-0.41907 -2.02963,0.60294 -2.71938,3.03534 -1.28132,4.5186 0.9942,1.02543 2.53722,1.15077 3.72149,0.30231 0.2213,-0.15855 0.45748,-0.28827 0.52485,-0.28827 0.0674,0 0.22234,0.13089 0.34437,0.29088 0.28693,0.37619 0.20768,0.53625 -0.48822,0.98603 -0.82521,0.53336 -1.76889,0.73596 -2.68837,0.57719 z m 21.6423,0.005 c -0.54384,-0.1366 -1.29701,-0.5863 -1.69556,-1.01239 -1.60144,-1.71206 -1.33726,-4.64422 0.53201,-5.90476 0.7268,-0.49013 1.2906,-0.64286 2.2036,-0.59695 0.86601,0.0435 1.34735,0.23222 1.90594,0.74711 0.41824,0.38552 0.44952,0.37189 0.49125,-0.2139 0.024,-0.33632 0.0268,-0.33885 0.40206,-0.36558 0.28458,-0.0203 0.40483,0.01 0.48683,0.12201 0.13977,0.19114 0.15966,6.72155 0.0213,6.98014 -0.0656,0.12261 -0.17838,0.16377 -0.44873,0.16377 -0.46329,0 -0.56429,-0.10964 -0.56429,-0.61255 v -0.40935 l -0.26125,0.29754 c -0.14367,0.16365 -0.50326,0.4167 -0.79908,0.56232 -0.44291,0.21805 -0.66208,0.27011 -1.24159,0.29496 -0.38706,0.0166 -0.85166,-0.007 -1.03245,-0.0524 z m 1.86561,-1.18776 c 0.511,-0.24695 1.07221,-0.88795 1.29524,-1.47941 0.38331,-1.01653 0.11415,-2.35784 -0.62367,-3.10793 -0.52363,-0.53234 -0.92135,-0.69486 -1.70047,-0.69486 -0.53853,0 -0.7506,0.0388 -1.03482,0.18956 -0.77897,0.41305 -1.25135,1.04379 -1.463,1.95347 -0.25124,1.07984 0.24329,2.30547 1.20715,2.9918 0.59934,0.42677 1.60872,0.4909 2.31957,0.14737 z m -16.94624,1.1127 c -0.47901,-0.11661 -0.80161,-0.34566 -0.994,-0.70574 -0.18379,-0.34397 -0.193,-0.46161 -0.23367,-2.98276 l -0.0423,-2.62466 -0.59267,-0.0423 -0.59266,-0.0423 -0.0252,-0.43357 c -0.029,-0.49946 0.0271,-0.53691 0.80838,-0.53895 l 0.4445,-0.001 v -1.0903 c 0,-0.77137 0.031,-1.11466 0.10584,-1.17358 0.16885,-0.13288 0.71048,-0.18794 0.81551,-0.0829 0.0603,0.0603 0.0947,0.50368 0.0947,1.22072 v 1.12607 h 0.61882 c 0.79,0 0.92573,0.0909 0.88977,0.59574 l -0.0269,0.37793 -0.74083,0.0245 -0.74084,0.0245 8.5e-4,2.2192 c 0,1.22056 0.0386,2.35637 0.0851,2.52401 0.11997,0.43189 0.33204,0.5871 0.87932,0.64359 l 0.4744,0.049 v 0.44476 c 0,0.32746 -0.0353,0.45832 -0.13393,0.49616 -0.17317,0.0665 -0.76879,0.0513 -1.09374,-0.0278 z m -48.20073,-0.1071 c -0.0769,-0.0769 -0.1016,-1.38531 -0.1016,-5.37028 0,-4.67683 0.0149,-5.28364 0.13304,-5.40174 0.11298,-0.11297 0.41716,-0.13304 2.01646,-0.13304 2.08869,0 2.65717,0.0717 3.35239,0.4226 2.54041,1.2824 2.45265,4.97567 -0.14751,6.20738 l -0.57072,0.27035 -1.8415,0.0283 -1.8415,0.0283 v 1.92324 c 0,1.38297 -0.0285,1.95179 -0.1016,2.02484 -0.0559,0.0559 -0.25781,0.1016 -0.44873,0.1016 -0.19092,0 -0.39285,-0.0457 -0.44873,-0.1016 z m 4.78554,-5.21175 c 0.91924,-0.4912 1.41437,-1.26875 1.41118,-2.21614 -0.002,-0.68949 -0.21902,-1.20787 -0.71032,-1.69917 -0.64336,-0.64336 -0.90512,-0.71284 -2.81517,-0.74722 l -1.67217,-0.0301 v 2.46923 2.46923 l 1.7145,-0.0274 c 1.58834,-0.0254 1.74081,-0.0415 2.07198,-0.21842 z m 4.01979,5.21175 c -0.11953,-0.11953 -0.14691,-6.89254 -0.0286,-7.07907 0.0466,-0.0735 0.21074,-0.1021 0.48553,-0.0847 0.40014,0.0254 0.4161,0.0363 0.44168,0.3015 0.031,0.32126 0.0987,0.34174 0.32018,0.0968 0.44034,-0.48689 1.31349,-0.67785 2.13599,-0.46713 0.94125,0.24113 1.21271,0.57577 0.86415,1.06527 -0.21734,0.30522 -0.33551,0.31638 -0.82762,0.0782 -0.28414,-0.13755 -0.47818,-0.17047 -0.8319,-0.14114 -0.5993,0.0497 -1.00682,0.36512 -1.34867,1.04387 l -0.254,0.50432 -0.0274,2.32718 c -0.0196,1.66558 -0.0557,2.3452 -0.127,2.39054 -0.15721,0.1 -0.69039,0.0763 -0.80234,-0.0357 z m 42.50267,0 c -0.11953,-0.11953 -0.14691,-6.89254 -0.0286,-7.07907 0.0466,-0.0735 0.21074,-0.1021 0.48553,-0.0847 l 0.41514,0.0263 0.0221,3.55042 c 0.0173,2.78415 -9.3e-4,3.56506 -0.0847,3.61821 -0.16322,0.10361 -0.69518,0.0831 -0.8095,-0.0312 z m 5.16006,-0.0105 c -0.16864,-0.2032 -2.891,-6.76687 -2.891,-6.97026 0,-0.18622 0.0318,-0.19893 0.49745,-0.19893 h 0.49743 l 1.12832,2.70918 c 0.62057,1.49005 1.15666,2.68068 1.19133,2.64583 0.0346,-0.0348 0.55454,-1.24444 1.15529,-2.68801 l 1.09228,-2.62467 h 0.49862 c 0.38795,0 0.50437,0.0298 0.5245,0.1343 0.0349,0.18117 -2.76299,6.86492 -2.92979,6.99887 -0.17364,0.13944 -0.64671,0.13554 -0.76443,-0.006 z m -4.98481,-8.41252 c -0.2736,-0.0551 -0.53085,-0.42543 -0.53085,-0.76427 0,-0.20921 0.0698,-0.36124 0.24749,-0.53891 0.2766,-0.27661 0.56257,-0.31455 0.93179,-0.12362 0.27914,0.14435 0.34472,0.28036 0.34472,0.71496 0,0.49483 -0.45415,0.82034 -0.99315,0.71184 z M 118.585,131.09253 c -0.8804,-0.24962 -1.611,-0.88141 -2.01457,-1.74212 l -0.22311,-0.47582 v -2.54 -2.54 l 0.48683,-0.0254 0.48684,-0.0254 v 2.10933 c 0,1.16014 0.0384,2.31456 0.0853,2.56539 0.3599,1.92493 2.98704,2.29267 3.92022,0.54874 0.1751,-0.32722 0.1879,-0.48215 0.22785,-2.75968 l 0.0423,-2.413 h 0.46567 0.46567 l 0.0221,3.50385 c 0.0159,2.51623 -0.005,3.53645 -0.0739,3.6195 -0.0528,0.0636 -0.22251,0.11565 -0.37715,0.11565 -0.33003,0 -0.54477,-0.24493 -0.54477,-0.62136 v -0.24501 l -0.34947,0.31573 c -0.19221,0.17364 -0.51727,0.38995 -0.72236,0.48067 -0.47474,0.21 -1.39176,0.2723 -1.89749,0.12891 z m 13.00232,-0.001 c -1.41445,-0.36253 -2.4354,-1.55091 -2.67878,-3.11806 -0.26522,-1.70785 0.54521,-3.34072 2.0181,-4.06611 0.54322,-0.26754 0.61895,-0.28171 1.50534,-0.28171 0.8266,0 0.9866,0.025 1.39901,0.2185 0.25611,0.12017 0.61386,0.3583 0.79501,0.52917 0.18113,0.17087 0.34107,0.31067 0.3554,0.31067 0.0143,0 0.0376,-0.20003 0.0517,-0.4445 l 0.0256,-0.4445 0.41515,-0.0263 c 0.27479,-0.0174 0.43894,0.0112 0.48553,0.0847 0.1183,0.18653 0.0909,6.95954 -0.0286,7.07907 -0.0559,0.0559 -0.26409,0.1016 -0.46269,0.1016 -0.42396,0 -0.53638,-0.14142 -0.53638,-0.67472 v -0.34718 l -0.26124,0.29754 c -0.41916,0.4774 -1.17994,0.80391 -1.98242,0.85081 -0.40766,0.0238 -0.84588,-0.004 -1.10067,-0.0689 z m 1.77879,-1.12166 c 0.43801,-0.18302 1.03528,-0.76319 1.29795,-1.26082 0.20269,-0.38396 0.22519,-0.51582 0.22459,-1.31573 -8.5e-4,-0.77363 -0.0278,-0.94394 -0.20964,-1.31233 -0.2531,-0.51271 -0.77041,-1.04629 -1.22902,-1.26768 -0.19283,-0.0931 -0.5864,-0.17857 -0.91394,-0.19851 -0.51323,-0.0312 -0.63382,-0.006 -1.11828,0.23231 -0.9853,0.48506 -1.50074,1.35529 -1.5085,2.54687 -0.003,0.51834 0.0386,0.72929 0.22755,1.143 0.61295,1.34224 1.98703,1.95194 3.22929,1.43289 z m -6.73179,1.06951 c -0.47157,-0.0952 -0.81495,-0.31523 -1.029,-0.65951 -0.1948,-0.31332 -0.19949,-0.37155 -0.241,-2.98655 l -0.0423,-2.667 -0.55034,-0.0242 c -0.60621,-0.0266 -0.762,-0.13627 -0.762,-0.5363 0,-0.378 0.19637,-0.49787 0.81561,-0.49787 h 0.54951 l -0.0182,-1.10183 c -0.01,-0.60601 0.004,-1.12374 0.0305,-1.15052 0.0268,-0.0268 0.20829,-0.0845 0.40337,-0.12838 0.56059,-0.12595 0.58983,-0.0641 0.58983,1.2481 v 1.13263 h 0.61882 c 0.79,0 0.92573,0.0909 0.88976,0.59574 l -0.0269,0.37793 -0.74084,0.0245 -0.74083,0.0245 v 2.31952 c 0,1.27574 0.0364,2.41527 0.0809,2.53228 0.11305,0.29733 0.41688,0.47235 0.9244,0.53245 l 0.43404,0.0514 v 0.40857 c 0,0.31728 -0.0366,0.42814 -0.16377,0.4962 -0.18086,0.0968 -0.56765,0.1 -1.02156,0.008 z m -19.3675,-0.0615 c -0.0831,-0.0335 -0.10583,-1.16856 -0.10583,-5.27592 0,-4.69391 0.0138,-5.23852 0.13392,-5.28461 0.0737,-0.0283 1.13245,-0.0514 2.35288,-0.0514 1.73224,0 2.32964,0.0288 2.72357,0.1314 0.9941,0.25886 1.70691,0.8493 2.17623,1.80261 0.25824,0.52456 0.27573,0.61662 0.27573,1.45087 0,0.78991 -0.0258,0.94578 -0.22758,1.37639 -0.31413,0.67025 -0.59409,1.01374 -1.12335,1.37825 l -0.45272,0.3118 0.19467,0.43617 c 0.10708,0.2399 0.50657,1.12198 0.88776,1.96018 0.49985,1.0991 0.67099,1.5594 0.61381,1.651 -0.10909,0.17478 -0.80652,0.21632 -0.9396,0.056 -0.0555,-0.0668 -0.47465,-0.94774 -0.93151,-1.95756 -0.45685,-1.00982 -0.85581,-1.83328 -0.88657,-1.8299 -0.0308,0.003 -0.89411,0.006 -1.91858,0.006 h -1.86266 v 1.81429 c 0,1.53646 -0.0204,1.83466 -0.13305,1.94733 -0.12661,0.12661 -0.55016,0.16856 -0.77712,0.077 z m 4.75967,-4.98441 c 1.03839,-0.27047 1.72237,-1.03503 1.80088,-2.01304 0.0825,-1.02778 -0.39233,-1.86585 -1.3134,-2.31815 -0.48186,-0.23662 -0.49575,-0.23814 -2.41082,-0.26488 l -1.92616,-0.0269 v 2.37639 2.37639 h 1.67554 c 1.2324,0 1.80736,-0.0343 2.17396,-0.12982 z"
           id="path606" /></g><g
         id="g346"
         transform="matrix(0.18819124,0,0,0.18819124,51.848166,180.27145)"
         clip-path="url(#clipPath402)"
         style="fill:#ffffff;fill-opacity:1"><path
           style="fill:#ffffff;stroke-width:0.0846667;fill-opacity:1"
           d="m 122.62368,164.96376 c -0.0927,-0.34582 -0.0602,-9.54446 0.0343,-9.72107 0.0656,-0.12261 0.17838,-0.16377 0.44873,-0.16377 0.43606,0 0.56429,0.11138 0.56429,0.49013 v 0.28693 l 0.27516,-0.23228 c 0.45369,-0.38296 1.20478,-0.69271 1.82454,-0.75245 1.53833,-0.14827 2.82937,0.5924 3.54044,2.03116 0.29325,0.59336 0.31923,0.70718 0.35294,1.54634 0.0309,0.7704 0.009,0.98812 -0.1486,1.45617 -0.353,1.05014 -1.03421,1.85016 -1.93499,2.27242 -0.42901,0.20112 -0.58028,0.22525 -1.41183,0.22525 -1.0741,0 -1.36902,-0.11046 -2.08635,-0.78144 l -0.41131,-0.38473 v 1.82499 c 0,1.00375 -0.0231,1.88526 -0.0514,1.95892 -0.0379,0.0987 -0.16886,0.13393 -0.49812,0.13393 -0.39171,0 -0.45302,-0.0235 -0.49779,-0.1905 z m 4.50469,-3.79523 c 0.58036,-0.29001 1.00566,-0.74718 1.29993,-1.39735 0.28696,-0.63404 0.2672,-1.60068 -0.0468,-2.2892 -0.93445,-2.04896 -3.4472,-2.11009 -4.44755,-0.10821 -0.33429,0.66898 -0.4022,1.25523 -0.22549,1.9469 0.43527,1.70378 2.00785,2.55348 3.41993,1.84786 z m 6.25777,1.26914 c -0.9267,-0.21841 -1.87949,-1.01119 -2.33165,-1.94008 -1.25303,-2.57415 0.49009,-5.588 3.23192,-5.588 1.48056,0 2.70272,0.76263 3.32426,2.07433 1.24216,2.62148 -0.51976,5.57628 -3.30177,5.53716 -0.3327,-0.005 -0.74794,-0.0422 -0.92276,-0.0834 z m 2.09329,-1.21546 c 1.63491,-0.79988 2.00977,-3.12808 0.71729,-4.45502 -0.57309,-0.58836 -1.05727,-0.79576 -1.85773,-0.79576 -0.80047,0 -1.28465,0.2074 -1.85773,0.79576 -0.5294,0.54351 -0.76694,1.14892 -0.76694,1.95467 0,2.06506 1.9746,3.37637 3.76511,2.50035 z m 16.29491,1.19697 c -1.24134,-0.3519 -2.25873,-1.4875 -2.5393,-2.83434 -0.13349,-0.64077 -0.0523,-1.72105 0.17504,-2.32862 0.85277,-2.27922 3.76577,-3.10163 5.48488,-1.54851 l 0.34266,0.30957 0.0713,-0.44801 0.0713,-0.44801 h 0.42253 0.42254 v 3.59833 3.59833 l -0.41514,0.0263 c -0.48659,0.0309 -0.55538,-0.039 -0.55723,-0.56629 l -10e-4,-0.37061 -0.38357,0.35356 c -0.56029,0.51645 -1.03869,0.69745 -1.94476,0.73575 -0.46686,0.0197 -0.9119,-0.0103 -1.14899,-0.0775 z m 1.81672,-1.07861 c 0.58255,-0.21796 1.10294,-0.71745 1.39378,-1.33783 0.19364,-0.41302 0.22443,-0.58935 0.22413,-1.28315 0,-0.70868 -0.0285,-0.86175 -0.23708,-1.28713 -0.48292,-0.98495 -1.49283,-1.59126 -2.45974,-1.47675 -0.92173,0.10917 -1.65212,0.66315 -2.0761,1.57468 -0.2981,0.64088 -0.30995,1.7019 -0.026,2.32754 0.62203,1.37053 1.89494,1.96382 3.18101,1.48264 z m 6.65593,1.03577 c -1.31297,-0.43739 -2.22226,-1.56008 -2.46453,-3.04292 -0.27151,-1.66184 0.59268,-3.40612 2.03495,-4.10738 0.51137,-0.24863 0.62535,-0.27075 1.40325,-0.27236 1.01615,-0.002 1.5014,0.17647 2.07915,0.76516 0.20301,0.20685 0.39866,0.37608 0.43478,0.37608 0.0361,0 0.0758,-1.03822 0.0882,-2.30716 l 0.0225,-2.30717 h 0.46567 0.46567 v 5.41867 5.41866 h -0.46567 -0.46567 l -0.0256,-0.3975 -0.0256,-0.3975 -0.44005,0.33318 c -0.58045,0.43947 -1.04984,0.59563 -1.92172,0.63931 -0.54699,0.0274 -0.8314,-0.001 -1.18533,-0.11907 z m 2.08819,-1.16215 c 0.83676,-0.4094 1.3844,-1.27129 1.44919,-2.28078 0.0736,-1.14734 -0.42996,-2.13602 -1.35794,-2.66601 -0.78615,-0.44899 -1.49871,-0.44138 -2.27541,0.0243 -1.12092,0.67205 -1.63327,2.15471 -1.17128,3.38948 0.57976,1.54957 1.9976,2.19734 3.35544,1.53302 z m 6.54182,1.20493 c -2.06057,-0.58381 -3.21804,-3.06051 -2.40162,-5.13886 0.69748,-1.77554 2.52403,-2.72011 4.35285,-2.25102 3.32316,0.85238 3.7606,5.6305 0.65542,7.15901 -0.50933,0.25071 -0.66746,0.28598 -1.397,0.31161 -0.50585,0.0178 -0.97169,-0.0133 -1.20965,-0.0807 z m 2.15787,-1.19467 c 2.02666,-0.99155 2.01361,-4.02171 -0.0216,-5.02117 -0.65632,-0.32231 -1.54903,-0.33388 -2.17037,-0.0281 -0.92063,0.45303 -1.47928,1.30042 -1.54953,2.35039 -0.14301,2.13758 1.89058,3.60449 3.74153,2.69891 z m 11.47347,1.19473 c -1.24145,-0.35193 -2.25927,-1.48813 -2.53905,-2.83434 -0.13441,-0.64672 -0.0576,-1.72413 0.16425,-2.30265 0.5962,-1.55502 1.97631,-2.45934 3.585,-2.34908 0.79413,0.0544 1.58969,0.39616 1.9938,0.85641 l 0.24917,0.28379 0.0756,-0.47602 0.0756,-0.47603 h 0.42333 0.42333 v 3.59833 3.59833 l -0.41514,0.0263 c -0.48767,0.0309 -0.55539,-0.0387 -0.55723,-0.57269 l -0.001,-0.37701 -0.3175,0.3078 c -0.55226,0.5354 -1.12636,0.76355 -2.00598,0.7972 -0.46294,0.0177 -0.92022,-0.0142 -1.15384,-0.0804 z m 1.81672,-1.07861 c 0.58255,-0.21796 1.10294,-0.71745 1.39378,-1.33783 0.19364,-0.41302 0.22443,-0.58935 0.22413,-1.28315 0,-0.70868 -0.0285,-0.86175 -0.23708,-1.28713 -0.48292,-0.98495 -1.49282,-1.59126 -2.45974,-1.47675 -0.92173,0.10917 -1.65212,0.66315 -2.0761,1.57468 -0.2981,0.64088 -0.30994,1.7019 -0.026,2.32754 0.62203,1.37053 1.89494,1.96382 3.18101,1.48264 z m -37.65393,0.98085 c -0.4068,-0.14504 -0.71456,-0.42419 -0.89064,-0.80783 -0.11323,-0.24672 -0.14083,-0.7316 -0.16485,-2.89625 l -0.0289,-2.59993 -0.6074,-0.0247 c -0.5992,-0.0244 -0.60778,-0.028 -0.63518,-0.26781 -0.0153,-0.13369 -0.005,-0.33371 0.0228,-0.4445 0.0472,-0.18807 0.0898,-0.20144 0.64161,-0.20144 h 0.59105 v -1.09462 c 0,-1.2668 0.0436,-1.36071 0.63199,-1.36071 0.25555,0 0.3814,0.0404 0.41729,0.13392 0.0283,0.0737 0.0514,0.62611 0.0514,1.22767 v 1.09374 h 0.71805 c 0.68559,0 0.72034,0.009 0.76861,0.20144 0.0278,0.11079 0.0381,0.31081 0.0228,0.4445 l -0.0278,0.24306 -0.74084,0.0245 -0.74083,0.0245 v 2.36186 c 0,1.29902 0.0363,2.45727 0.0806,2.57389 0.10503,0.27623 0.37054,0.41689 0.89306,0.47311 l 0.42333,0.0456 0.0263,0.36609 c 0.0145,0.20135 -0.0187,0.42042 -0.0739,0.48683 -0.12953,0.15607 -0.93775,0.15446 -1.37867,-0.003 z m -39.4077,-0.0619 c -0.078,-0.078 -0.10213,-1.35711 -0.10115,-5.35602 8.5e-4,-2.88946 0.0318,-5.30159 0.0691,-5.36028 0.0532,-0.0838 0.88479,-0.10198 3.8722,-0.0847 l 3.80446,0.022 0.0263,0.36609 c 0.0458,0.63681 0.21054,0.60758 -3.42337,0.60758 h -3.24931 v 1.82033 1.82033 h 2.60774 c 1.91534,0 2.6347,0.027 2.70933,0.1016 0.0559,0.0559 0.1016,0.26409 0.1016,0.46269 0,0.27034 -0.0412,0.38311 -0.16377,0.44873 -0.10247,0.0549 -1.11652,0.0876 -2.70934,0.0876 h -2.54556 v 2.07336 2.07336 l 3.3655,0.0221 3.3655,0.0221 v 0.46567 0.46566 l -3.81338,0.022 c -2.89544,0.0167 -3.83805,-0.003 -3.91584,-0.0804 z m 8.31188,-0.0218 c -0.0756,-0.19702 -0.0385,-0.2623 1.16076,-2.04157 0.63999,-0.94955 1.09071,-1.69885 1.0639,-1.7687 -0.0256,-0.0667 -0.46483,-0.74703 -0.97611,-1.51192 -0.51128,-0.76489 -0.93696,-1.44341 -0.94594,-1.50782 -0.0402,-0.2886 0.0101,-0.32878 0.41231,-0.32878 0.49207,0 0.49327,10e-4 1.45282,1.41817 0.38629,0.57044 0.72558,1.03558 0.75397,1.03364 0.0284,-0.002 0.42469,-0.5544 0.88065,-1.22767 l 0.82904,-1.22414 h 0.46479 c 0.32896,0 0.47864,0.0361 0.51214,0.12337 0.0278,0.0725 -0.38088,0.7606 -0.99044,1.66768 -0.57077,0.84938 -1.03777,1.58459 -1.03777,1.6338 0,0.0492 0.52551,0.878 1.1678,1.84174 0.73804,1.10741 1.14927,1.80055 1.11743,1.8835 -0.0359,0.0936 -0.16825,0.13125 -0.46159,0.13125 -0.50775,0 -0.49548,0.0127 -1.62205,-1.68055 l -0.86461,-1.29954 -0.98788,1.46888 -0.98788,1.46887 -0.44545,0.0256 c -0.34113,0.0196 -0.45726,-0.005 -0.49589,-0.10584 z m 24.10066,-0.0412 c -0.1384,-0.25859 -0.11851,-6.789 0.0213,-6.98014 0.0816,-0.1116 0.20185,-0.14218 0.47975,-0.12201 0.33623,0.0244 0.37974,0.0534 0.46602,0.31097 0.0864,0.25804 0.106,0.27101 0.21342,0.14157 0.065,-0.0784 0.30037,-0.23478 0.52293,-0.34756 0.60263,-0.30537 1.5605,-0.29325 2.19429,0.0278 0.51775,0.26225 0.62309,0.51968 0.37043,0.90528 -0.17315,0.26426 -0.43191,0.27807 -0.88442,0.0472 -0.38674,-0.1973 -0.82338,-0.21671 -1.21298,-0.0539 -0.36689,0.15329 -0.93404,0.80877 -1.05811,1.2229 -0.0654,0.21836 -0.0996,1.09988 -0.0996,2.57041 0,1.62784 -0.0277,2.26578 -0.1016,2.33968 -0.0559,0.0559 -0.2641,0.1016 -0.46269,0.1016 -0.27035,0 -0.38312,-0.0412 -0.44873,-0.16377 z m 35.59574,0.0579 c -0.0224,-0.0582 -0.0307,-1.68701 -0.0185,-3.6195 l 0.0221,-3.51361 h 0.42334 c 0.40466,0 0.42733,0.0124 0.5141,0.28082 0.0834,0.25816 0.10053,0.26903 0.21167,0.13469 0.25947,-0.31364 0.93407,-0.54082 1.60855,-0.54169 0.53239,-6.7e-4 0.71886,0.0386 1.10066,0.23201 0.51776,0.26225 0.62309,0.51968 0.37043,0.90528 -0.17151,0.26176 -0.3951,0.27397 -0.86442,0.0472 -0.81862,-0.39552 -1.65691,-0.0513 -2.16524,0.889 -0.17316,0.3203 -0.18451,0.4671 -0.20928,2.70671 -0.0167,1.50954 -0.0588,2.40737 -0.1162,2.4765 -0.11705,0.14104 -0.82329,0.1431 -0.87722,0.003 z M -4.4296918,141.65925 v -20.61633 l 9.122834,1.7e-4 c 9.3653688,1.7e-4 10.6762348,0.0365 12.2344118,0.33854 7.372301,1.42911 12.087466,7.60184 11.495215,15.04864 -0.27278,3.42985 -1.489086,6.30018 -3.64742,8.60744 -0.899133,0.96118 -2.431994,2.11587 -3.551039,2.67497 -0.20955,0.10469 -0.392661,0.20051 -0.406912,0.21291 -0.07351,0.064 0.289156,1.17042 0.540831,1.64996 0.854915,1.62896 2.213237,2.65166 4.237269,3.19028 0.785462,0.20902 0.979896,0.22471 3.227645,0.26042 l 2.391834,0.038 V 137.0536 121.04292 l 8.9535,1.7e-4 c 5.24714,8e-5 9.418915,0.0357 10.077808,0.086 7.122521,0.54334 12.278271,5.10182 13.404701,11.85182 0.12008,0.7196 0.15206,2.94923 0.0519,3.6195 l -0.0664,0.4445 h 1.52692 1.52692 v -8.001 -8.001 H 81.21066 95.730985 v 4.14867 4.14866 h -9.73666 -9.736665 v 3.85234 3.85233 h 5.71239 5.712395 l 0.0238,-1.02783 0.0238,-1.02782 3.34434,3.30207 3.34433,3.30208 -1.87809,1.93791 c -1.03295,1.06586 -2.54743,2.60427 -3.3655,3.41868 l -1.48741,1.4808 v -1.07859 -1.0786 H 81.97187 76.25601 l 0.022,3.87351 0.022,3.8735 9.842495,0.0215 9.8425,0.0215 v 4.10598 4.10598 H 81.33768 66.690346 v -8.00934 -8.00934 l -2.18017,0.0375 c -1.89486,0.0326 -2.2688,0.0615 -2.8575,0.22086 -0.7195,0.19476 -1.85816,0.7111 -2.29581,1.04106 -0.1451,0.1094 -0.62135,0.47224 -1.05834,0.80632 -1.16655,0.89184 -3.13551,2.10418 -3.889868,2.39509 -0.933737,0.36008 -1.994416,0.6562 -3.124841,0.87239 -0.934185,0.17866 -1.182734,0.1868 -5.73895,0.18793 l -4.762475,0.001 -2.6e-5,5.22816 -2.5e-5,5.22817 -6.286501,-0.002 c -7.915137,-0.002 -9.460832,-0.0819 -11.705167,-0.60507 -1.74988,-0.40787 -3.810682,-1.29446 -5.292322,-2.27682 -1.099999,-0.72932 -2.74154,-2.38046 -3.494929,-3.51535 -0.971275,-1.46311 -1.779221,-3.36815 -2.270581,-5.35376 l -0.276342,-1.11671 H 8.2970852 5.1376722 v 6.43466 6.43467 H 0.35400521 -4.4296618 Z m 54.3560028,-0.4084 c 1.704462,-0.50315 3.165086,-1.78433 3.817167,-3.34823 0.401768,-0.96356 0.523441,-1.67773 0.477891,-2.80503 -0.04458,-1.10337 -0.272813,-1.9241 -0.800502,-2.87867 -0.427826,-0.77392 -1.5876,-1.90984 -2.351556,-2.30319 -1.218024,-0.62715 -1.034443,-0.60725 -5.9055,-0.64021 l -4.3815,-0.0297 v 6.1081 6.1081 l 4.339167,-0.0369 c 3.680422,-0.0313 4.409862,-0.0577 4.804833,-0.17434 z m -34.967335,-0.29582 c 1.731551,-0.6174 3.046973,-1.96877 3.618345,-3.71723 0.162505,-0.49729 0.225175,-0.90032 0.25593,-1.64588 0.05197,-1.25987 -0.105148,-2.02777 -0.638173,-3.119 -0.326285,-0.66798 -0.515469,-0.92718 -1.115995,-1.52902 -0.507196,-0.5083 -0.90007,-0.81555 -1.315774,-1.02901 -1.224783,-0.6289 -1.014798,-0.6068 -6.0748328,-0.6394 l -4.550834,-0.0293 v 5.97711 5.97711 l 4.6355,-0.0246 c 4.6019808,-0.0244 4.6394798,-0.026 5.1858338,-0.22079 z m 108.460064,5.6119 c -2.21359,-0.62223 -3.32734,-3.23098 -2.30588,-5.4011 0.36583,-0.77719 0.92609,-1.34911 1.69253,-1.72773 0.63385,-0.31313 0.66301,-0.31885 1.6251,-0.31885 0.93217,0 1.00627,0.0132 1.5281,0.27157 1.00576,0.49803 1.58745,1.16438 1.94729,2.23067 0.15419,0.4569 0.17923,0.69151 0.15383,1.44083 -0.0281,0.82989 -0.053,0.94086 -0.34129,1.524 -0.39167,0.79224 -0.95291,1.3588 -1.72339,1.73972 -0.51255,0.25341 -0.70349,0.30035 -1.35466,0.33309 -0.52797,0.0265 -0.89872,-0.001 -1.22163,-0.0922 z m 1.6947,-1.02187 c 1.20206,-0.35697 1.94391,-1.38746 1.94391,-2.70026 0,-2.03132 -2.09605,-3.38023 -3.80619,-2.44945 -1.601,0.87138 -1.95708,3.13389 -0.69586,4.42154 0.74963,0.76534 1.60914,1.00999 2.55814,0.72817 z m 6.79674,1.06864 c -1.30179,-0.27696 -2.43218,-1.46401 -2.72646,-2.86311 -0.3777,-1.79574 0.44288,-3.61 1.97997,-4.37764 0.47187,-0.23565 0.57423,-0.2537 1.43933,-0.2537 1.0829,0 1.40922,0.12283 2.0955,0.78874 l 0.40217,0.39023 v -2.2556 c 0,-2.5051 0.004,-2.5217 0.55033,-2.5217 0.58053,0 0.55033,-0.30361 0.55033,5.53478 0,3.98498 -0.0247,5.29344 -0.1016,5.37029 -0.14583,0.14583 -0.7092,0.12537 -0.86602,-0.0315 -0.0732,-0.0732 -0.13304,-0.26665 -0.13304,-0.42993 v -0.29689 l -0.35312,0.30226 c -0.19421,0.16624 -0.55968,0.37954 -0.81217,0.474 -0.52773,0.19745 -1.50852,0.27964 -2.02522,0.16972 z m 1.68461,-1.20492 c 0.48184,-0.20453 1.10452,-0.84696 1.35623,-1.39927 0.28011,-0.61463 0.26708,-1.68218 -0.0282,-2.31179 -0.29127,-0.62098 -0.6438,-1.00927 -1.1921,-1.31299 -0.38774,-0.21478 -0.53859,-0.24918 -1.08534,-0.2475 -0.74941,0.002 -1.12219,0.16633 -1.66331,0.73187 -1.489,1.55621 -0.85406,4.14778 1.15113,4.69839 0.45396,0.12465 0.91094,0.075 1.46162,-0.15871 z m 6.4589,1.1745 c -0.94111,-0.31251 -1.56679,-0.83789 -1.96601,-1.65084 l -0.23533,-0.47919 v -2.58233 -2.58233 h 0.46567 0.46567 l 0.0423,2.413 c 0.0401,2.28596 0.0522,2.43146 0.22991,2.76373 0.8372,1.56538 3.08464,1.48368 3.82575,-0.13907 0.10997,-0.24077 0.14327,-0.7408 0.17767,-2.667 l 0.0423,-2.37066 h 0.46566 0.46567 l 0.0221,3.50385 c 0.0159,2.51622 -0.005,3.53644 -0.0739,3.6195 -0.13046,0.15719 -0.62519,0.14628 -0.78887,-0.0174 -0.0732,-0.0732 -0.13305,-0.26811 -0.13305,-0.43319 v -0.30014 l -0.34947,0.31573 c -0.19221,0.17365 -0.52558,0.39381 -0.74083,0.48925 -0.48472,0.21492 -1.44411,0.27356 -1.91536,0.11708 z m 8.84766,0.0204 c -1.57154,-0.27138 -2.9087,-1.6292 -3.12802,-3.17637 -0.3467,-2.44575 1.52382,-4.47483 3.99338,-4.33187 0.55781,0.0323 0.76425,0.0911 1.35678,0.38663 0.74116,0.36964 1.16453,0.70306 1.16453,0.91711 0,0.0716 -0.11132,0.24141 -0.24737,0.37746 -0.28214,0.28214 -0.35942,0.27056 -0.93796,-0.14063 -0.73197,-0.52024 -1.51832,-0.66142 -2.33414,-0.41907 -2.02963,0.60294 -2.71938,3.03534 -1.28132,4.5186 0.9942,1.02543 2.53722,1.15077 3.72149,0.30231 0.2213,-0.15855 0.45748,-0.28827 0.52485,-0.28827 0.0674,0 0.22234,0.13089 0.34437,0.29088 0.28693,0.37619 0.20768,0.53625 -0.48822,0.98603 -0.82521,0.53336 -1.76889,0.73596 -2.68837,0.57719 z m 21.6423,0.005 c -0.54384,-0.1366 -1.29701,-0.5863 -1.69556,-1.01239 -1.60144,-1.71206 -1.33726,-4.64422 0.53201,-5.90476 0.7268,-0.49013 1.2906,-0.64286 2.2036,-0.59695 0.86601,0.0435 1.34735,0.23222 1.90594,0.74711 0.41824,0.38552 0.44952,0.37189 0.49125,-0.2139 0.024,-0.33632 0.0268,-0.33885 0.40206,-0.36558 0.28458,-0.0203 0.40483,0.01 0.48683,0.12201 0.13977,0.19114 0.15966,6.72155 0.0213,6.98014 -0.0656,0.12261 -0.17838,0.16377 -0.44873,0.16377 -0.46329,0 -0.56429,-0.10964 -0.56429,-0.61255 v -0.40935 l -0.26125,0.29754 c -0.14367,0.16365 -0.50326,0.4167 -0.79908,0.56232 -0.44291,0.21805 -0.66208,0.27011 -1.24159,0.29496 -0.38706,0.0166 -0.85166,-0.007 -1.03245,-0.0524 z m 1.86561,-1.18776 c 0.511,-0.24695 1.07221,-0.88795 1.29524,-1.47941 0.38331,-1.01653 0.11415,-2.35784 -0.62367,-3.10793 -0.52363,-0.53234 -0.92135,-0.69486 -1.70047,-0.69486 -0.53853,0 -0.7506,0.0388 -1.03482,0.18956 -0.77897,0.41305 -1.25135,1.04379 -1.463,1.95347 -0.25124,1.07984 0.24329,2.30547 1.20715,2.9918 0.59934,0.42677 1.60872,0.4909 2.31957,0.14737 z m -16.94624,1.1127 c -0.47901,-0.11661 -0.80161,-0.34566 -0.994,-0.70574 -0.18379,-0.34397 -0.193,-0.46161 -0.23367,-2.98276 l -0.0423,-2.62466 -0.59267,-0.0423 -0.59266,-0.0423 -0.0252,-0.43357 c -0.029,-0.49946 0.0271,-0.53691 0.80838,-0.53895 l 0.4445,-0.001 v -1.0903 c 0,-0.77137 0.031,-1.11466 0.10584,-1.17358 0.16885,-0.13288 0.71048,-0.18794 0.81551,-0.0829 0.0603,0.0603 0.0947,0.50368 0.0947,1.22072 v 1.12607 h 0.61882 c 0.79,0 0.92573,0.0909 0.88977,0.59574 l -0.0269,0.37793 -0.74083,0.0245 -0.74084,0.0245 8.5e-4,2.2192 c 0,1.22056 0.0386,2.35637 0.0851,2.52401 0.11997,0.43189 0.33204,0.5871 0.87932,0.64359 l 0.4744,0.049 v 0.44476 c 0,0.32746 -0.0353,0.45832 -0.13393,0.49616 -0.17317,0.0665 -0.76879,0.0513 -1.09374,-0.0278 z m -48.20073,-0.1071 c -0.0769,-0.0769 -0.1016,-1.38531 -0.1016,-5.37028 0,-4.67683 0.0149,-5.28364 0.13304,-5.40174 0.11298,-0.11297 0.41716,-0.13304 2.01646,-0.13304 2.08869,0 2.65717,0.0717 3.35239,0.4226 2.54041,1.2824 2.45265,4.97567 -0.14751,6.20738 l -0.57072,0.27035 -1.8415,0.0283 -1.8415,0.0283 v 1.92324 c 0,1.38297 -0.0285,1.95179 -0.1016,2.02484 -0.0559,0.0559 -0.25781,0.1016 -0.44873,0.1016 -0.19092,0 -0.39285,-0.0457 -0.44873,-0.1016 z m 4.78554,-5.21175 c 0.91924,-0.4912 1.41437,-1.26875 1.41118,-2.21614 -0.002,-0.68949 -0.21902,-1.20787 -0.71032,-1.69917 -0.64336,-0.64336 -0.90512,-0.71284 -2.81517,-0.74722 l -1.67217,-0.0301 v 2.46923 2.46923 l 1.7145,-0.0274 c 1.58834,-0.0254 1.74081,-0.0415 2.07198,-0.21842 z m 4.01979,5.21175 c -0.11953,-0.11953 -0.14691,-6.89254 -0.0286,-7.07907 0.0466,-0.0735 0.21074,-0.1021 0.48553,-0.0847 0.40014,0.0254 0.4161,0.0363 0.44168,0.3015 0.031,0.32126 0.0987,0.34174 0.32018,0.0968 0.44034,-0.48689 1.31349,-0.67785 2.13599,-0.46713 0.94125,0.24113 1.21271,0.57577 0.86415,1.06527 -0.21734,0.30522 -0.33551,0.31638 -0.82762,0.0782 -0.28414,-0.13755 -0.47818,-0.17047 -0.8319,-0.14114 -0.5993,0.0497 -1.00682,0.36512 -1.34867,1.04387 l -0.254,0.50432 -0.0274,2.32718 c -0.0196,1.66558 -0.0557,2.3452 -0.127,2.39054 -0.15721,0.1 -0.69039,0.0763 -0.80234,-0.0357 z m 42.50267,0 c -0.11953,-0.11953 -0.14691,-6.89254 -0.0286,-7.07907 0.0466,-0.0735 0.21074,-0.1021 0.48553,-0.0847 l 0.41514,0.0263 0.0221,3.55042 c 0.0173,2.78415 -9.3e-4,3.56506 -0.0847,3.61821 -0.16322,0.10361 -0.69518,0.0831 -0.8095,-0.0312 z m 5.16006,-0.0105 c -0.16864,-0.2032 -2.891,-6.76687 -2.891,-6.97026 0,-0.18622 0.0318,-0.19893 0.49745,-0.19893 h 0.49743 l 1.12832,2.70918 c 0.62057,1.49005 1.15666,2.68068 1.19133,2.64583 0.0346,-0.0348 0.55454,-1.24444 1.15529,-2.68801 l 1.09228,-2.62467 h 0.49862 c 0.38795,0 0.50437,0.0298 0.5245,0.1343 0.0349,0.18117 -2.76299,6.86492 -2.92979,6.99887 -0.17364,0.13944 -0.64671,0.13554 -0.76443,-0.006 z m -4.98481,-8.41252 c -0.2736,-0.0551 -0.53085,-0.42543 -0.53085,-0.76427 0,-0.20921 0.0698,-0.36124 0.24749,-0.53891 0.2766,-0.27661 0.56257,-0.31455 0.93179,-0.12362 0.27914,0.14435 0.34472,0.28036 0.34472,0.71496 0,0.49483 -0.45415,0.82034 -0.99315,0.71184 z M 118.585,131.09253 c -0.8804,-0.24962 -1.611,-0.88141 -2.01457,-1.74212 l -0.22311,-0.47582 v -2.54 -2.54 l 0.48683,-0.0254 0.48684,-0.0254 v 2.10933 c 0,1.16014 0.0384,2.31456 0.0853,2.56539 0.3599,1.92493 2.98704,2.29267 3.92022,0.54874 0.1751,-0.32722 0.1879,-0.48215 0.22785,-2.75968 l 0.0423,-2.413 h 0.46567 0.46567 l 0.0221,3.50385 c 0.0159,2.51623 -0.005,3.53645 -0.0739,3.6195 -0.0528,0.0636 -0.22251,0.11565 -0.37715,0.11565 -0.33003,0 -0.54477,-0.24493 -0.54477,-0.62136 v -0.24501 l -0.34947,0.31573 c -0.19221,0.17364 -0.51727,0.38995 -0.72236,0.48067 -0.47474,0.21 -1.39176,0.2723 -1.89749,0.12891 z m 13.00232,-0.001 c -1.41445,-0.36253 -2.4354,-1.55091 -2.67878,-3.11806 -0.26522,-1.70785 0.54521,-3.34072 2.0181,-4.06611 0.54322,-0.26754 0.61895,-0.28171 1.50534,-0.28171 0.8266,0 0.9866,0.025 1.39901,0.2185 0.25611,0.12017 0.61386,0.3583 0.79501,0.52917 0.18113,0.17087 0.34107,0.31067 0.3554,0.31067 0.0143,0 0.0376,-0.20003 0.0517,-0.4445 l 0.0256,-0.4445 0.41515,-0.0263 c 0.27479,-0.0174 0.43894,0.0112 0.48553,0.0847 0.1183,0.18653 0.0909,6.95954 -0.0286,7.07907 -0.0559,0.0559 -0.26409,0.1016 -0.46269,0.1016 -0.42396,0 -0.53638,-0.14142 -0.53638,-0.67472 v -0.34718 l -0.26124,0.29754 c -0.41916,0.4774 -1.17994,0.80391 -1.98242,0.85081 -0.40766,0.0238 -0.84588,-0.004 -1.10067,-0.0689 z m 1.77879,-1.12166 c 0.43801,-0.18302 1.03528,-0.76319 1.29795,-1.26082 0.20269,-0.38396 0.22519,-0.51582 0.22459,-1.31573 -8.5e-4,-0.77363 -0.0278,-0.94394 -0.20964,-1.31233 -0.2531,-0.51271 -0.77041,-1.04629 -1.22902,-1.26768 -0.19283,-0.0931 -0.5864,-0.17857 -0.91394,-0.19851 -0.51323,-0.0312 -0.63382,-0.006 -1.11828,0.23231 -0.9853,0.48506 -1.50074,1.35529 -1.5085,2.54687 -0.003,0.51834 0.0386,0.72929 0.22755,1.143 0.61295,1.34224 1.98703,1.95194 3.22929,1.43289 z m -6.73179,1.06951 c -0.47157,-0.0952 -0.81495,-0.31523 -1.029,-0.65951 -0.1948,-0.31332 -0.19949,-0.37155 -0.241,-2.98655 l -0.0423,-2.667 -0.55034,-0.0242 c -0.60621,-0.0266 -0.762,-0.13627 -0.762,-0.5363 0,-0.378 0.19637,-0.49787 0.81561,-0.49787 h 0.54951 l -0.0182,-1.10183 c -0.01,-0.60601 0.004,-1.12374 0.0305,-1.15052 0.0268,-0.0268 0.20829,-0.0845 0.40337,-0.12838 0.56059,-0.12595 0.58983,-0.0641 0.58983,1.2481 v 1.13263 h 0.61882 c 0.79,0 0.92573,0.0909 0.88976,0.59574 l -0.0269,0.37793 -0.74084,0.0245 -0.74083,0.0245 v 2.31952 c 0,1.27574 0.0364,2.41527 0.0809,2.53228 0.11305,0.29733 0.41688,0.47235 0.9244,0.53245 l 0.43404,0.0514 v 0.40857 c 0,0.31728 -0.0366,0.42814 -0.16377,0.4962 -0.18086,0.0968 -0.56765,0.1 -1.02156,0.008 z m -19.3675,-0.0615 c -0.0831,-0.0335 -0.10583,-1.16856 -0.10583,-5.27592 0,-4.69391 0.0138,-5.23852 0.13392,-5.28461 0.0737,-0.0283 1.13245,-0.0514 2.35288,-0.0514 1.73224,0 2.32964,0.0288 2.72357,0.1314 0.9941,0.25886 1.70691,0.8493 2.17623,1.80261 0.25824,0.52456 0.27573,0.61662 0.27573,1.45087 0,0.78991 -0.0258,0.94578 -0.22758,1.37639 -0.31413,0.67025 -0.59409,1.01374 -1.12335,1.37825 l -0.45272,0.3118 0.19467,0.43617 c 0.10708,0.2399 0.50657,1.12198 0.88776,1.96018 0.49985,1.0991 0.67099,1.5594 0.61381,1.651 -0.10909,0.17478 -0.80652,0.21632 -0.9396,0.056 -0.0555,-0.0668 -0.47465,-0.94774 -0.93151,-1.95756 -0.45685,-1.00982 -0.85581,-1.83328 -0.88657,-1.8299 -0.0308,0.003 -0.89411,0.006 -1.91858,0.006 h -1.86266 v 1.81429 c 0,1.53646 -0.0204,1.83466 -0.13305,1.94733 -0.12661,0.12661 -0.55016,0.16856 -0.77712,0.077 z m 4.75967,-4.98441 c 1.03839,-0.27047 1.72237,-1.03503 1.80088,-2.01304 0.0825,-1.02778 -0.39233,-1.86585 -1.3134,-2.31815 -0.48186,-0.23662 -0.49575,-0.23814 -2.41082,-0.26488 l -1.92616,-0.0269 v 2.37639 2.37639 h 1.67554 c 1.2324,0 1.80736,-0.0343 2.17396,-0.12982 z"
           id="path344" /></g></g></g></svg>
